<svg width="16" height="17" viewBox="0 0 16 17" fill="none" xmlns="http://www.w3.org/2000/svg">
<g id="check-circle">
<path id="Vector" d="M8 1.60291C4.13438 1.60291 1 4.73728 1 8.60291C1 12.4685 4.13438 15.6029 8 15.6029C11.8656 15.6029 15 12.4685 15 8.60291C15 4.73728 11.8656 1.60291 8 1.60291ZM11.0234 6.31697L7.73281 10.8795C7.68682 10.9437 7.62619 10.996 7.55595 11.0321C7.48571 11.0681 7.40787 11.087 7.32891 11.087C7.24994 11.087 7.17211 11.0681 7.10186 11.0321C7.03162 10.996 6.97099 10.9437 6.925 10.8795L4.97656 8.17947C4.91719 8.09666 4.97656 7.98103 5.07812 7.98103H5.81094C5.97031 7.98103 6.12187 8.05759 6.21562 8.18884L7.32812 9.73259L9.78438 6.32634C9.87813 6.19666 10.0281 6.11853 10.1891 6.11853H10.9219C11.0234 6.11853 11.0828 6.23416 11.0234 6.31697Z" fill="#00D7B7"/>
</g>
</svg>
